<svg id="Layer_1" data-name="Layer 1" xmlns="http://www.w3.org/2000/svg" width="204.5485mm" height="29.2517mm" viewBox="0 0 579.8224 82.9181"><title>partner</title><path d="M474.2838,77.368l-1.019,1.9206a7.9306,7.9306,0,0,0,4.5468,1.3889c3.39,0,5.0157-1.84,5.0157-4.27,0-2.8627-2.0762-3.7845-4.2312-4.0979-1.4516-.2163-2.3938-.5883-2.3938-1.9024,0-.94.5884-1.6456,1.961-1.6456a5.9559,5.9559,0,0,1,3.1377.94l1.017-1.88a6.6192,6.6192,0,0,0-4.1748-1.3505c-2.8607,0-4.466,1.6638-4.466,4.015,0,2.7839,1.7427,3.8817,4.0556,4.2152,1.7447.2346,2.5291.7642,2.5291,1.9024,0,1.0574-.94,1.765-2.5493,1.765a7.06,7.06,0,0,1-3.4288-1.0008M463.2616,66.7057l.0788,8.485-5.04-8.485h-2.3492V80.4228h2.5635l-.0587-8.4061,4.9814,8.4061h2.4079V66.7057ZM443.0367,78.1322v-3.55h4.6459v-2.27h-4.6459V69.0165h5.5677V66.7057h-8.1716V80.4228h8.2889V78.1322ZM428.5818,73.84H426.15l-.0183-4.8237h2.45c1.2351,0,1.9226.8228,1.9226,2.4118s-.6875,2.4119-1.9226,2.4119m.1577-7.1345h-5.1938V80.4228h2.604V76.151h2.59c2.7839,0,4.3688-1.7427,4.3688-4.4679v-.51c0-2.7252-1.5849-4.4679-4.3688-4.4679M411.6947,73.84h-2.4321l-.02-4.8237h2.4524c1.2353,0,1.9226.8228,1.9226,2.4118S412.93,73.84,411.6947,73.84m.1577-7.1345h-5.1937V80.4228h2.6039V76.151h2.59c2.7819,0,4.3688-1.7427,4.3688-4.4679v-.51c0-2.7252-1.5869-4.4679-4.3688-4.4679m-19.5557,8.4466,1.5486-5.2726,1.5081,5.2726a8.0146,8.0146,0,0,1-3.0567,0m2.7252-8.4466H392.63l-4.7044,13.7171h2.8809l.9218-3.2327a12.7042,12.7042,0,0,0,4.2132,0l.96,3.2327h2.8808Zm-16.5675,0v5.5071H374.1V66.7057h-2.6039V80.4228H374.1V74.5033h4.3548v5.9195h2.6038V66.7057Z" fill="#fff"/><path d="M576.9394,34.4733,574.3537,40.49,571.73,34.4733h-2.9011l4.195,8.6811V48.19h2.6242V43.1342l4.1748-8.6609Zm-21.4277,2.3108h2.6464a1.7949,1.7949,0,0,1,1.9226,1.9388v.1961A1.8742,1.8742,0,0,1,558.0226,40.9a12.3484,12.3484,0,0,1-2.5109-.2749Zm6.0973,8.8388-1.5081-2.8021a3.8057,3.8057,0,0,0,2.6039-3.6653v-.6671c0-2.2926-1.7629-4.0151-4.5467-4.0151h-5.25V48.19h2.604V42.9381a7.3288,7.3288,0,0,0,1.9408.2345l1.53,3.0588c1.0978,2.1935,2.234,2.3512,4.486,2.0176l.02-1.9994a1.4649,1.4649,0,0,1-1.88-.6267M538.661,42.92l1.5487-5.2726,1.5081,5.2726a8.0151,8.0151,0,0,1-3.0568,0m2.7252-8.4466h-2.3916L534.29,48.19h2.8809l.9219-3.2327a12.7042,12.7042,0,0,0,4.2132,0l.96,3.2327h2.8808Zm-16.5353,0,.0769,8.485-5.038-8.485h-2.3513V48.19h2.5656l-.0586-8.4061,4.9814,8.4061h2.4077V34.4733ZM507.3392,48.19h2.6039V34.4733h-2.6039Zm-10.11-4.7024c0,1.5688-.6854,2.3916-1.9206,2.3916h-2.4321V36.7841h2.4321c1.2352,0,1.9206.8228,1.9206,2.3916Zm-1.9206-9.0147h-5.036V48.19h5.036a4.1825,4.1825,0,0,0,4.5266-4.4659V38.9392a4.1825,4.1825,0,0,0-4.5266-4.4659m-19.9115,2.3108h2.6484a1.7944,1.7944,0,0,1,1.9206,1.9388v.1961A1.8742,1.8742,0,0,1,477.9076,40.9a12.3492,12.3492,0,0,1-2.5109-.2749Zm6.0974,8.8388-1.5081-2.8021a3.8057,3.8057,0,0,0,2.6038-3.6653v-.6671c0-2.2926-1.7629-4.0151-4.5447-4.0151h-5.2524V48.19h2.604V42.9381a7.3383,7.3383,0,0,0,1.9407.2345l1.5305,3.0588c1.0978,2.1935,2.2339,2.3512,4.4861,2.0176l.02-1.9994a1.4647,1.4647,0,0,1-1.88-.6267m-21.0477-9.134A2.2483,2.2483,0,0,1,462.8,38.9008v4.8419a2.354,2.354,0,1,1-4.7065,0V38.9008a2.2473,2.2473,0,0,1,2.3533-2.4119m0-2.2905c-2.7454,0-4.9773,1.7042-4.9773,4.4679v5.3129c0,2.7819,2.2319,4.4861,4.9773,4.4861,2.7434,0,4.9753-1.7042,4.9753-4.4861V38.6663c0-2.7637-2.2319-4.4679-4.9753-4.4679M441.6428,42.92l1.5486-5.2726,1.51,5.2726a8.0255,8.0255,0,0,1-3.0588,0m2.7252-8.4466h-2.3916L437.2719,48.19h2.881l.9218-3.2327a12.7162,12.7162,0,0,0,4.2152,0l.96,3.2327h2.8809Zm-21.353,2.3108h2.6464a1.7959,1.7959,0,0,1,1.9226,1.9388v.1961a1.8758,1.8758,0,0,1-2.06,1.9812,12.3157,12.3157,0,0,1-2.509-.2749Zm6.0954,8.8388-1.5081-2.8021a3.8076,3.8076,0,0,0,2.6059-3.6653v-.6671c0-2.2926-1.7629-4.0151-4.5468-4.0151h-5.2523V48.19h2.6059V42.9381a7.33,7.33,0,0,0,1.9409.2345l1.5283,3.0588c1.1,2.1935,2.236,2.3512,4.4882,2.0176l.0181-1.9994a1.4659,1.4659,0,0,1-1.88-.6267m-15.5467-11.15H404.04v2.2906h3.4511V48.19h2.6221V36.7639h3.4509ZM397.6693,48.19l-3.9787-7.0536,3.92-6.6635h-2.96l-2.6667,4.8783-2.5271-4.8783h-3l3.9018,6.7989-3.94,6.9182h2.9779l2.6666-5.0946,2.6059,5.0946ZM374.1007,45.9V42.35h4.6457v-2.27h-4.6457V36.7841h5.5656V34.4733h-8.17V48.19h8.2888V45.9Z" fill="#fff"/><path d="M446.2508,13.6664v-3.55h4.6438V7.846h-4.6438V4.5507h5.5657V2.24h-8.1716V15.957h8.2888V13.6664ZM428.7714,4.5507h2.6463A1.7965,1.7965,0,0,1,433.34,6.4915v.1961a1.8754,1.8754,0,0,1-2.06,1.9792,12.314,12.314,0,0,1-2.5089-.2749Zm6.0953,8.8388-1.5061-2.8021a3.8064,3.8064,0,0,0,2.6039-3.6653V6.255c0-2.2926-1.7629-4.0151-4.5468-4.0151h-5.25V15.957h2.6039V10.7047a7.33,7.33,0,0,0,1.9408.2345l1.53,3.0588c1.0978,2.1955,2.2339,2.3512,4.4861,2.0176l.02-1.9994a1.4658,1.4658,0,0,1-1.8822-.6267m-21.4965.2769v-3.55h4.6459V7.846H413.37V4.5507h5.5678V2.24h-8.1716V15.957h8.2888V13.6664ZM400.5387,2.24V7.747H396.186V2.24h-2.6039V15.957h2.6039v-5.92h4.3527v5.92h2.6059V2.24Zm-16.5191,0-2.6261,10.6017-1.666-4.664L381.9616,2.24h-2.2744L378.551,5.61l-1.1181-3.37H375.12l2.333,6.0751-1.6274,4.5266L373.1228,2.24h-2.7051l4.2517,13.7171h2.1187l1.8012-4.7611,1.7649,4.7611h2.0966L386.6659,2.24Z" fill="#fff"/><rect x="349.1339" width="2.2402" height="82.917" fill="#fff"/><rect x="0.0475" y="0.1891" width="328.5772" height="82.54" transform="translate(-0.0476 0.1891) rotate(-0.0659)" fill="#0a73b9"/><rect x="0.042" y="0.0547" width="80.115" height="82.541" fill="#21274f"/><rect x="80.2261" y="57.2889" width="248.4308" height="25.3943" transform="translate(-0.0802 0.2346) rotate(-0.0657)" fill="#fabc1c"/><rect x="94.0662" y="64.6412" width="1.5749" height="11.3275" fill="#21274f"/><polygon points="106.934 64.646 109.075 64.646 113.927 73.763 113.957 73.763 113.957 64.646 115.534 64.646 115.534 75.971 113.518 75.971 108.541 66.655 108.511 66.655 108.511 75.971 106.934 75.971 106.934 64.646" fill="#21274f"/><polygon points="129.047 66.246 125.628 66.25 125.626 64.824 134.036 64.814 134.038 66.24 130.62 66.244 130.632 76.144 129.059 76.146 129.047 66.246" fill="#21274f"/><polygon points="144.196 64.802 150.352 64.794 150.354 66.222 145.769 66.226 145.773 69.537 149.95 69.533 149.952 70.96 145.773 70.966 145.779 74.694 150.364 74.688 150.366 76.12 144.208 76.128 144.196 64.802" fill="#21274f"/><path d="M161.2836,64.7825l2.6908-.002c2.1753-.0041,4.2718.35,4.2738,3.0567a2.6077,2.6077,0,0,1-2.2663,2.5837v.0324c.4893.1961.7258.4387,1.0755,1.1362l2.08,4.5083-1.7932.002-1.69-3.924c-.4873-1.1059-1.0067-1.1059-1.84-1.1059l-.95.002.006,5.034-1.5748.002Zm1.5789,4.8641,1.3423-.002c1.494-.002,2.3735-.6833,2.3735-1.771-.002-1.0229-.7582-1.67-2.2077-1.67l-1.5121.002Z" fill="#21274f"/><polygon points="179.492 64.762 181.632 64.76 186.492 73.871 186.525 73.871 186.515 64.754 188.092 64.752 188.104 76.077 186.084 76.079 181.101 66.769 181.066 66.769 181.078 76.085 179.504 76.087 179.492 64.762" fill="#21274f"/><path d="M202.8654,64.735l1.6537-.002,4.658,11.3193-1.7185.002-1.1179-2.8566-5.3858.0081-1.1179,2.8566-1.6518.002Zm.7723,1.5243-2.1814,5.6122,4.3789-.0061Z" fill="#21274f"/><polygon points="220.288 66.141 216.869 66.145 216.867 64.719 225.282 64.709 225.282 66.135 221.861 66.139 221.873 76.039 220.3 76.041 220.288 66.141" fill="#21274f"/><rect x="235.368" y="64.6959" width="1.5718" height="11.3254" transform="matrix(1, -0.0012, 0.0012, 1, -0.0872, 0.2934)" fill="#21274f"/><path d="M252.9674,64.4807c3.3337-.0041,5.2948,2.4927,5.2968,5.8527.0041,3.4368-1.9327,5.8608-5.2826,5.8629-3.358.004-5.2968-2.4139-5.3008-5.8508-.0041-3.36,1.9448-5.8608,5.2866-5.8648M252.98,74.769c2.5351-.0021,3.6188-2.1794,3.6167-4.4336-.002-2.3067-1.2009-4.4456-3.6268-4.43-2.426-.01-3.6229,2.1309-3.6208,4.4376.004,2.2562,1.0937,4.4275,3.6309,4.4255" fill="#21274f"/><polygon points="268.984 64.659 271.125 64.657 275.987 73.768 276.018 73.768 276.008 64.651 277.585 64.649 277.597 75.974 275.579 75.976 270.594 66.666 270.559 66.666 270.571 75.982 268.996 75.984 268.984 64.659" fill="#21274f"/><path d="M292.36,64.6323l1.6538-.002L298.6693,75.95l-1.7143.002-1.1241-2.8566-5.3817.0081L289.3313,75.96l-1.6517.002Zm.7724,1.5243-2.1815,5.6122,4.377-.0061Z" fill="#21274f"/><polygon points="308.741 64.613 310.314 64.611 310.326 74.505 314.923 74.499 314.925 75.93 308.753 75.938 308.741 64.613" fill="#21274f"/><path d="M40.1658,12.0634c2.8727,2.8567,6.0831,5.8872,8.8649,8.8388L45.79,25.2144v.2164l8.6083,3.95,5.8083-4.1242-3.5137-4.0151v-.2911c3.6007-2.63,6.6918-5.1654,10.1791-7.5853l-1.67,18.0091-50.2245.0586-1.7083-18.005c3.4934,2.41,6.5907,4.9389,10.1953,7.561l.0021.2912-3.5036,4.0231,5.8183,4.11,8.6-3.9706v-.2143l-3.2509-4.3062c2.7737-2.9577,5.9762-5.9963,8.8428-8.859Z" fill="#fff"/><path d="M64.8228,34.6237l-.5014,6.0044L45.73,40.64l.0282,20.7364,9.0551-.0708c2.0217-.0081,4.1465-2.1976,3.7118-3.639-.4912-2.0844-2.3128-3.4753-4.0029-4.5144.3376-.002,6.5442-4.7206,9.4473-6.7565-.1314,1.298-2.1956,18.2457-2.21,18.5166L40.312,73.3408h-.3437l-21.4662-8.38c-.0162-.2709-2.1187-17.2126-2.2521-18.51,2.9092,2.03,9.1218,6.7342,9.4615,6.7342-1.6882,1.0452-3.5056,2.4382-3.9888,4.5246-.4327,1.4414,1.6941,3.6268,3.7158,3.6309l9.0551.0485-.0182-20.7343-18.5913.0283L15.3685,34.68Z" fill="#fff"/><path d="M93.872,23.7863c-.0081-5.9053-.1961-6.7948-4.3911-7.1749v-.5438l9.142-.3174c9.4392-.3215,10.1934,4.43,10.1973,6.2793.0021,3.2428-1.9407,5.0987-4.6356,6.3359l.1839.2709c2.891,5.21,6.4977,11.843,12.68,13.1531l-.1111.5761c-3.9726-.186-6.8919-.0687-9.0693-2.3835a33.9763,33.9763,0,0,1-5.2159-7.7127c-1.5041-3.2064-2.8545-2.2744-5.4766-2.7353l.008,6.2146c.004,4.2455.0808,5.0178,5.2138,5.7436V42.07l-13.153.0161v-.5782c4.4982-.6226,4.5346-1.7811,4.6419-5.7557Zm3.3035,5.0906c3.5965-.0425,7.7894-1.7467,7.7853-6.0286-.006-4.5165-3.8654-6.3259-7.8-6.2854Z" fill="#fff"/><path d="M122.481,42.4128c-5.1351.0061-9.223-3.3479-9.229-8.8286a8.9576,8.9576,0,0,1,9.2431-9.0046c5.0987-.006,9.1866,3.3843,9.1926,8.8267a9.0185,9.0185,0,0,1-9.2067,9.0065m-.0566-16.9841c-4.0474.0041-5.691,4.3264-5.687,7.88.004,3.5885,1.957,8.2586,6.0023,8.2545,3.7867-.004,5.4667-4.4456,5.4626-7.7693-.004-3.548-1.6942-8.37-5.7779-8.3657" fill="#fff"/><path d="M132.8744,28.4247c-.6754-1.7367-.827-2.1228-2.7031-2.4281v-.5822l7.7592-.0081v.58c-2.8485.1557-2.1,1.9348-1.3464,3.9019l3.6835,9.799,2.3147-6.95c1.65-5.0178,1.9469-6.3723-.7924-6.7544v-.58l6.522-.008.0019.58c-1.65.1961-2.1712.89-2.8828,2.3573l-1.5628,3.7461-5.7274,14.9463c-1.3808,3.5925-2.3553,4.7873-3.8514,4.7893a1.9454,1.9454,0,0,1-.6428-3.7381,7.2,7.2,0,0,0,1.9852,1.0756c.8269,0,1.4982-2.09,1.761-2.6686L138.624,43.51Z" fill="#fff"/><path d="M155.8671,32.4393c.2971-4.2091-.7561-5.9457-3.718-5.9437-2.5857.004-2.3188,1.28-2.3147,3.3984l-1.8741.1193c-.3013.002-.8653.04-.8653-.38-.002-1.0432,4.1161-5.0663,7.1507-5.07,3.449-.0041,4.5023,2.6969,4.5062,5.788l.0062,5.4808c.0039,3.3984-.3114,5.5212,3.2629,4.941v.8693a13.08,13.08,0,0,1-3.78.56c-1.5769.002-2.1753-.9259-2.3654-2.4321A6.5916,6.5916,0,0,1,151.12,42.4c-2.3978.002-3.7482-2.0783-3.75-4.3951a6.5472,6.5472,0,0,1,.22-1.6982ZM150.8129,35.88a5.3979,5.3979,0,0,0-.2608,1.5466c.0019,1.6193.9037,3.0446,2.6241,3.0426a4.0176,4.0176,0,0,0,2.6989-1.4293l-.006-5.8285Z" fill="#fff"/><path d="M160.2974,42.0051v-.934c2.6-.3235,2.9193-.9421,2.9152-3.5461l-.0181-16.41c-.0021-1.6194.0364-2.1228-1.84-3.5076l-.002-.3862,4.3081-1.7062.4145.1556.0243,21.85c.004,3.1659.1516,3.4732,2.9253,3.8958v.5782Z" fill="#fff"/><path d="M204.4265,32.3835c.2951-4.2091-.7562-5.9457-3.718-5.9437-2.5857.004-2.3188,1.28-2.3147,3.3984l-1.8762.1213c-.2993,0-.8612.0384-.8612-.3821-.0021-1.0432,4.1141-5.0663,7.1487-5.07,3.4489-.0041,4.5,2.6969,4.5042,5.788l.006,5.4808c.0041,3.3984-.3679,5.7436,3.265,4.941v.8693a13.0826,13.0826,0,0,1-3.7825.56c-1.5748.002-2.1733-.9259-2.3633-2.4321a6.5918,6.5918,0,0,1-4.755,2.63c-2.4.002-3.75-2.0783-3.7542-4.3951a6.65,6.65,0,0,1,.2243-1.6982Zm-5.0542,3.4409a5.397,5.397,0,0,0-.2589,1.5466c.0021,1.6193.9017,3.0446,2.6221,3.0426a4.0138,4.0138,0,0,0,2.699-1.4293l-.0061-5.8285Z" fill="#fff"/><path d="M193.4812,23.6565h-.5641c-.7157-4.3607-3.19-7.4862-7.6864-7.48-6.86.0081-10.7108,5.8063-10.7048,12.4435.01,7.6075,5.6749,12.8861,11.1091,12.88,4.9066-.006,6.8516-3.7138,8.5335-7.8825l.5216.23a37.4582,37.4582,0,0,1-2.05,6.9121,16.8841,16.8841,0,0,1-7.642,1.6679c-7.8319.01-14.8067-4.6175-14.8168-13.339-.0082-6.8737,5.1916-13.8242,15.0817-13.8343a15.686,15.686,0,0,1,8.21,2.0722Z" fill="#fff"/><path d="M293.457,32.2664c.2971-4.2071-.7562-5.9437-3.7159-5.94-2.5818.002-2.3209,1.2736-2.3168,3.3984l-1.8762.1152c-.2993.0021-.8612.0445-.8612-.3841-.0021-1.0391,4.1141-5.06,7.1487-5.0643,3.4509-.004,4.5,2.699,4.5042,5.79l.006,5.4767c.0041,3.3985-.5215,5.5576,2.9011,5.3635l.0021.6813a10.0508,10.0508,0,0,1-3.4207.3255c-1.5708.002-2.1733-.9219-2.3633-2.428a6.5954,6.5954,0,0,1-4.753,2.6282c-2.4017.004-3.75-2.0763-3.7521-4.3931a6.6161,6.6161,0,0,1,.22-1.7Zm-5.0542,3.4409a5.4087,5.4087,0,0,0-.2589,1.5466c.0021,1.6234.9018,3.0467,2.6262,3.0447a4.011,4.011,0,0,0,2.6949-1.4273l-.0061-5.8326Z" fill="#fff"/><path d="M214.6534,37.4531c.004,3.1659.1515,3.4732,3.75,3.8917v.5822l-9.3685.01v-.92c2.5251-.2285,2.699-.8613,2.7313-3.8736l-.008-7.06c-.0021-1.6235.0364-2.1228-1.84-3.5117l-.002-.3861,4.46-1.7043.41.1536-.1435,4.5589h.0727c.8229-2.05,2.9213-4.7166,5.2827-4.7186a1.7876,1.7876,0,0,1,1.9084,1.7751c.0021,1.0391-1.0815,2.0055-1.9448,2.4341-.6388-.5014-1.5749-1.3485-2.4-1.2717-3.182.3134-2.9152,5.5617-2.9132,6.1439Z" fill="#fff"/><path d="M223.087,41.9214v-.58c2.7716-.4265,2.8828-.8895,2.9172-3.9l-.0081-7.3771c-.002-1.6193.0325-2.1207-2.2905-3.5076v-.3841l4.7549-1.7083.4145.1557.0142,12.8174c.0041,3.1639.1516,3.4732,2.9254,3.8937v.58Zm6.0792-23.8861a1.9123,1.9123,0,1,1-1.9105-1.9651,1.9448,1.9448,0,0,1,1.9105,1.9651" fill="#fff"/><path d="M233.1592,21.0231c-.002-1.6214.0385-2.1248-1.8377-3.5117l-.002-.382,4.3082-1.7063.41.1556.0142,11.0384c1.8316-1.0412,4.12-2.1652,6.251-2.1673,4.1626-.004,7.0517,3.9666,7.0556,8.0221.0081,6.8332-6.0953,9.8111-10.2155,9.8152a13.3376,13.3376,0,0,1-5.9619-1.5385ZM236.06,34.069c.004,3.5884.3861,7.0253,4.7287,7.0213,2.06-.0021,5.3938-1.7063,5.3877-7.0719-.004-4.6316-3.0042-7.6379-6.6432-7.6338a8.4286,8.4286,0,0,0-3.4813.8531Z" fill="#fff"/><path d="M251.0769,21.0025c-.002-1.6214.0325-2.1248-1.8377-3.5117l-.002-.3821,4.3062-1.7063.4145.1557.0121,11.0384c1.8316-1.0412,4.12-2.1653,6.255-2.1673,4.1567-.004,7.0477,3.9665,7.0516,8.022.0081,6.8333-6.0953,9.8112-10.2175,9.8153a13.3707,13.3707,0,0,1-5.96-1.5385Zm2.9012,13.0458c.004,3.5885.3861,7.0254,4.7287,7.0213,2.06-.002,5.3938-1.7063,5.3877-7.0718-.004-4.6316-3.01-7.6379-6.6391-7.6338a8.4314,8.4314,0,0,0-3.4854.8531Z" fill="#fff"/><path d="M272.178,32.0216c-.2932,4.0151,2.3694,7.7592,6.6028,7.7532A5.1734,5.1734,0,0,0,283.2,37.3366l.5641.4246a8.2672,8.2672,0,0,1-6.89,4.482c-4.6479.0061-7.8745-3.9261-7.88-8.5577-.0061-4.9794,3.364-9.2714,8.4223-9.2775,3.37-.004,5.6223,2.1955,5.7738,5.6728l-10.8665.0122Zm7.454-2.9819c-.3378-1.7751-1.393-3.7806-3.3783-3.7786-2.1328.0041-3.4065,2.1653-3.8149,4.0939Z" fill="#fff"/><path d="M300.8822,29.9811c-.0021-1.6213.0343-2.1247-1.8439-3.5116v-.3821l4.46-1.7083.4125.1577-.2952,2.8162c2.1308-1.6255,4.191-2.978,6.5886-2.98,4.4983-.006,4.7267,3.8169,4.7287,6.0913l.0082,6.8737c.004,3.166.1536,3.4773,2.9273,3.8958v.5782l-8.7336.01v-.5782c2.7737-.4266,2.8849-.8936,2.9213-3.9018L312.0518,32.9c-.004-2.7029.1032-6.52-4.47-6.5158a5.1007,5.1007,0,0,0-3.8149,1.6638l.01,9.3018c.0041,3.1679.1537,3.4772,2.9254,3.8957v.5782l-8.73.01-.006-.7035c2.6848-.2163,2.889-.7662,2.9233-3.7765Z" fill="#fff"/></svg>