<svg id="Layer_1" data-name="Layer 1" xmlns="http://www.w3.org/2000/svg" width="115.9482mm" height="29.2513mm" viewBox="0 0 328.6721 82.917"><title>partner</title><rect x="0.0475" y="0.188" width="328.5772" height="82.54" transform="translate(-0.0476 0.1891) rotate(-0.0659)" fill="#0a73b9"/><rect x="0.042" y="0.0536" width="80.115" height="82.541" fill="#21274f"/><rect x="80.2261" y="57.2878" width="248.4308" height="25.3943" transform="translate(-0.0802 0.2346) rotate(-0.0657)" fill="#fabc1c"/><rect x="94.0662" y="64.6401" width="1.5749" height="11.3275" fill="#21274f"/><polygon points="106.934 64.645 109.075 64.645 113.927 73.762 113.957 73.762 113.957 64.645 115.534 64.645 115.534 75.97 113.518 75.97 108.541 66.654 108.511 66.654 108.511 75.97 106.934 75.97 106.934 64.645" fill="#21274f"/><polygon points="129.047 66.244 125.628 66.249 125.626 64.823 134.036 64.813 134.038 66.238 130.62 66.242 130.632 76.143 129.059 76.145 129.047 66.244" fill="#21274f"/><polygon points="144.196 64.801 150.352 64.793 150.354 66.22 145.769 66.224 145.773 69.536 149.95 69.532 149.952 70.959 145.773 70.965 145.779 74.693 150.364 74.687 150.366 76.119 144.208 76.127 144.196 64.801" fill="#21274f"/><path d="M161.2836,64.7814l2.6908-.002c2.1753-.0041,4.2718.35,4.2738,3.0567a2.6077,2.6077,0,0,1-2.2663,2.5837v.0324c.4893.1961.7258.4387,1.0755,1.1362l2.08,4.5083-1.7932.002-1.69-3.924c-.4873-1.1059-1.0067-1.1059-1.84-1.1059l-.95.002.006,5.034-1.5748.002Zm1.5789,4.8641,1.3423-.002c1.494-.002,2.3735-.6833,2.3735-1.771-.002-1.0229-.7582-1.67-2.2077-1.67l-1.5121.002Z" fill="#21274f"/><polygon points="179.492 64.761 181.632 64.759 186.492 73.87 186.525 73.87 186.515 64.752 188.092 64.75 188.104 76.076 186.084 76.078 181.101 66.768 181.066 66.768 181.078 76.084 179.504 76.086 179.492 64.761" fill="#21274f"/><path d="M202.8654,64.7339l1.6537-.002,4.658,11.3193-1.7185.002-1.1179-2.8566-5.3858.0081-1.1179,2.8566-1.6518.002Zm.7723,1.5243L201.4563,71.87l4.3789-.0061Z" fill="#21274f"/><polygon points="220.288 66.14 216.869 66.144 216.867 64.718 225.282 64.708 225.282 66.133 221.861 66.138 221.873 76.038 220.3 76.04 220.288 66.14" fill="#21274f"/><rect x="235.368" y="64.6948" width="1.5718" height="11.3254" transform="matrix(1, -0.0012, 0.0012, 1, -0.0872, 0.2934)" fill="#21274f"/><path d="M252.9674,64.48c3.3337-.0041,5.2948,2.4927,5.2968,5.8527.0041,3.4368-1.9327,5.8608-5.2826,5.8629-3.358.004-5.2968-2.4139-5.3008-5.8508-.0041-3.36,1.9448-5.8608,5.2866-5.8648m.0122,10.2883c2.5351-.0021,3.6188-2.1794,3.6167-4.4336-.002-2.3067-1.2009-4.4456-3.6268-4.43-2.426-.01-3.6229,2.1309-3.6208,4.4376.004,2.2562,1.0937,4.4275,3.6309,4.4255" fill="#21274f"/><polygon points="268.984 64.658 271.125 64.656 275.987 73.767 276.018 73.767 276.008 64.65 277.585 64.648 277.597 75.973 275.579 75.975 270.594 66.665 270.559 66.665 270.571 75.981 268.996 75.983 268.984 64.658" fill="#21274f"/><path d="M292.36,64.6312l1.6538-.002,4.6558,11.3193-1.7143.002-1.1241-2.8566-5.3817.0081-1.1179,2.8566-1.6517.002Zm.7724,1.5243-2.1815,5.6122,4.377-.0061Z" fill="#21274f"/><polygon points="308.741 64.612 310.314 64.61 310.326 74.504 314.923 74.498 314.925 75.929 308.753 75.937 308.741 64.612" fill="#21274f"/><path d="M40.1658,12.0623c2.8727,2.8567,6.0831,5.8872,8.8649,8.8388L45.79,25.2133V25.43l8.6083,3.95,5.8083-4.1242-3.5137-4.0151V20.95c3.6007-2.63,6.6918-5.1654,10.1791-7.5853l-1.67,18.0091-50.2245.0586L13.2693,13.427c3.4934,2.41,6.5907,4.9389,10.1953,7.561l.0021.2912-3.5036,4.0231,5.8183,4.11,8.6-3.9706v-.2143l-3.2509-4.3062c2.7737-2.9577,5.9762-5.9963,8.8428-8.859Z" fill="#fff"/><path d="M64.8228,34.6226l-.5014,6.0044L45.73,40.6391l.0282,20.7364,9.0551-.0708c2.0217-.0081,4.1465-2.1976,3.7118-3.639-.4912-2.0844-2.3128-3.4753-4.0029-4.5144.3376-.002,6.5442-4.7206,9.4473-6.7565-.1314,1.298-2.1956,18.2457-2.21,18.5166L40.312,73.34h-.3437L18.5021,64.96c-.0162-.2709-2.1187-17.2126-2.2521-18.5105,2.9092,2.03,9.1218,6.7342,9.4615,6.7342-1.6882,1.0452-3.5056,2.4382-3.9888,4.5245-.4327,1.4415,1.6941,3.6269,3.7158,3.631l9.0551.0485-.0182-20.7343-18.5913.0283-.5156-6.0024Z" fill="#fff"/><path d="M93.872,23.7852c-.0081-5.9053-.1961-6.7948-4.3911-7.1749v-.5438l9.142-.3174c9.4392-.3215,10.1934,4.4295,10.1973,6.2793.0021,3.2428-1.9407,5.0987-4.6356,6.3359l.1839.2709c2.891,5.21,6.4977,11.843,12.68,13.1531l-.1111.5761c-3.9726-.186-6.8919-.0687-9.0693-2.3835a33.9763,33.9763,0,0,1-5.2159-7.7127c-1.5041-3.2064-2.8545-2.2744-5.4766-2.7354l.008,6.2147c.004,4.2455.0808,5.0178,5.2138,5.7436v.5782l-13.153.0161v-.5782c4.4982-.6226,4.5346-1.7811,4.6419-5.7557Zm3.3035,5.0906c3.5965-.0425,7.7894-1.7467,7.7853-6.0286-.006-4.5165-3.8654-6.3259-7.8-6.2854Z" fill="#fff"/><path d="M122.481,42.4117c-5.1351.0061-9.223-3.3479-9.229-8.8286a8.9576,8.9576,0,0,1,9.2431-9.0046c5.0987-.006,9.1866,3.3843,9.1926,8.8267a9.0185,9.0185,0,0,1-9.2067,9.0065m-.0566-16.9841c-4.0474.0041-5.691,4.3264-5.687,7.8805.004,3.5885,1.957,8.2586,6.0023,8.2545,3.7867-.004,5.4667-4.4456,5.4626-7.7693-.004-3.548-1.6942-8.37-5.7779-8.3657" fill="#fff"/><path d="M132.8744,28.4236c-.6754-1.7367-.827-2.1228-2.7031-2.4281v-.5822l7.7592-.0081v.58c-2.8485.1557-2.1,1.9348-1.3464,3.9019l3.6835,9.799,2.3147-6.9505c1.65-5.0178,1.9469-6.3723-.7924-6.7544v-.58l6.522-.008.0019.58c-1.65.1961-2.1712.89-2.8828,2.3573l-1.5628,3.7461L138.1408,47.023c-1.3808,3.5925-2.3553,4.7873-3.8514,4.7893a1.9454,1.9454,0,0,1-.6428-3.7381,7.2,7.2,0,0,0,1.9852,1.0756c.8269,0,1.4982-2.09,1.761-2.6686l1.2312-2.9719Z" fill="#fff"/><path d="M155.8671,32.4382c.2971-4.2091-.7561-5.9457-3.718-5.9437-2.5857.004-2.3188,1.28-2.3147,3.3984l-1.8741.1193c-.3013.002-.8653.04-.8653-.38-.002-1.0432,4.1161-5.0663,7.1507-5.07,3.449-.004,4.5023,2.697,4.5062,5.7881l.0062,5.4808c.0039,3.3984-.3114,5.5212,3.2629,4.941v.8693a13.08,13.08,0,0,1-3.78.56c-1.5769.002-2.1753-.9259-2.3654-2.4321a6.5916,6.5916,0,0,1-4.7549,2.63c-2.3978.002-3.7482-2.0783-3.75-4.3951a6.5472,6.5472,0,0,1,.22-1.6982Zm-5.0542,3.4409a5.3979,5.3979,0,0,0-.2608,1.5466c.0019,1.6193.9037,3.0446,2.6241,3.0426a4.0176,4.0176,0,0,0,2.6989-1.4293l-.006-5.8285Z" fill="#fff"/><path d="M160.2974,42.004V41.07c2.6-.3235,2.9193-.9421,2.9152-3.5461l-.0181-16.41c-.0021-1.6194.0364-2.1228-1.84-3.5076l-.002-.3862,4.3081-1.7063.4145.1557L166.1,37.52c.004,3.1659.1516,3.4732,2.9253,3.8958v.5782Z" fill="#fff"/><path d="M204.4265,32.3824c.2951-4.2091-.7562-5.9457-3.718-5.9437-2.5857.004-2.3188,1.28-2.3147,3.3984l-1.8762.1213c-.2993,0-.8612.0384-.8612-.3821-.0021-1.0432,4.1141-5.0663,7.1487-5.07,3.4489-.0041,4.5,2.6969,4.5042,5.788l.006,5.4808c.0041,3.3984-.3679,5.7436,3.265,4.941v.8693a13.0826,13.0826,0,0,1-3.7825.56c-1.5748.002-2.1733-.9259-2.3633-2.4321a6.5918,6.5918,0,0,1-4.755,2.63c-2.4.002-3.75-2.0783-3.7542-4.3951A6.65,6.65,0,0,1,196.15,36.25Zm-5.0542,3.4409a5.397,5.397,0,0,0-.2589,1.5466c.0021,1.6193.9017,3.0446,2.6221,3.0426a4.0138,4.0138,0,0,0,2.699-1.4293l-.0061-5.8285Z" fill="#fff"/><path d="M193.4812,23.6554h-.5641c-.7157-4.3607-3.19-7.4862-7.6864-7.48-6.86.0081-10.7108,5.8063-10.7048,12.4435.01,7.6075,5.6749,12.8861,11.1091,12.88,4.9066-.006,6.8516-3.7138,8.5335-7.8825l.5216.23a37.4582,37.4582,0,0,1-2.05,6.9121,16.8841,16.8841,0,0,1-7.642,1.6679c-7.8319.01-14.8067-4.6175-14.8168-13.339-.0082-6.8737,5.1916-13.8242,15.0817-13.8343a15.686,15.686,0,0,1,8.21,2.0722Z" fill="#fff"/><path d="M293.457,32.2653c.2971-4.2071-.7562-5.9437-3.7159-5.94-2.5818.002-2.3209,1.2736-2.3168,3.3984l-1.8762.1152c-.2993.0021-.8612.0445-.8612-.3841-.0021-1.0391,4.1141-5.06,7.1487-5.0643,3.4509-.004,4.5,2.699,4.5042,5.79l.006,5.4767c.0041,3.3985-.5215,5.5576,2.9011,5.3635l.0021.6813a10.0508,10.0508,0,0,1-3.4207.3255c-1.5708.002-2.1733-.9219-2.3633-2.428a6.5954,6.5954,0,0,1-4.753,2.6282c-2.4017.004-3.75-2.0763-3.7521-4.3931a6.6161,6.6161,0,0,1,.22-1.7Zm-5.0542,3.4409a5.4087,5.4087,0,0,0-.2589,1.5466c.0021,1.6234.9018,3.0467,2.6262,3.0447A4.011,4.011,0,0,0,293.465,38.87l-.0061-5.8326Z" fill="#fff"/><path d="M214.6534,37.452c.004,3.1659.1515,3.4732,3.75,3.8917v.5822l-9.3685.01v-.92c2.5251-.2285,2.699-.8613,2.7313-3.8736l-.008-7.06c-.0021-1.6235.0364-2.1228-1.84-3.5117l-.002-.3861,4.46-1.7043.41.1536-.1435,4.5589h.0727c.8229-2.05,2.9213-4.7166,5.2827-4.7186a1.7876,1.7876,0,0,1,1.9084,1.7751c.0021,1.0391-1.0815,2.0055-1.9448,2.4341-.6388-.5014-1.5749-1.3485-2.4-1.2717-3.182.3134-2.9152,5.5617-2.9132,6.1439Z" fill="#fff"/><path d="M223.087,41.92v-.58c2.7716-.4265,2.8828-.89,2.9172-3.9l-.0081-7.3771c-.002-1.6193.0325-2.1207-2.2905-3.5076v-.3841l4.7549-1.7083.4145.1557.0142,12.8174c.0041,3.1639.1516,3.4732,2.9254,3.8937v.58Zm6.0792-23.8861a1.9123,1.9123,0,1,1-1.9105-1.9651,1.9448,1.9448,0,0,1,1.9105,1.9651" fill="#fff"/><path d="M233.1592,21.022c-.002-1.6214.0385-2.1248-1.8377-3.5117l-.002-.382,4.3082-1.7063.41.1556.0142,11.0384c1.8316-1.0412,4.12-2.1652,6.251-2.1673,4.1626-.004,7.0517,3.9666,7.0556,8.0221.0081,6.8332-6.0953,9.8111-10.2155,9.8152a13.3376,13.3376,0,0,1-5.9619-1.5385ZM236.06,34.0679c.004,3.5884.3861,7.0253,4.7287,7.0213,2.06-.0021,5.3938-1.7063,5.3877-7.0719-.004-4.6316-3.0042-7.6379-6.6432-7.6338a8.4286,8.4286,0,0,0-3.4813.8531Z" fill="#fff"/><path d="M251.0769,21.0014c-.002-1.6214.0325-2.1248-1.8377-3.5117l-.002-.3821,4.3062-1.7063.4145.1557.0121,11.0384c1.8316-1.0412,4.12-2.1653,6.255-2.1673,4.1567-.004,7.0477,3.9665,7.0516,8.022.0081,6.8333-6.0953,9.8112-10.2175,9.8153a13.3707,13.3707,0,0,1-5.96-1.5385Zm2.9012,13.0458c.004,3.5885.3861,7.0254,4.7287,7.0213,2.06-.002,5.3938-1.7063,5.3877-7.0718-.004-4.6316-3.01-7.6379-6.6391-7.6338a8.4314,8.4314,0,0,0-3.4854.8531Z" fill="#fff"/><path d="M272.178,32.0205c-.2932,4.0151,2.3694,7.7592,6.6028,7.7532A5.1734,5.1734,0,0,0,283.2,37.3355l.5641.4246a8.2672,8.2672,0,0,1-6.89,4.482c-4.6479.0061-7.8745-3.9261-7.88-8.5577-.0061-4.9794,3.364-9.2714,8.4223-9.2775,3.37-.0041,5.6223,2.1955,5.7738,5.6728l-10.8665.0122Zm7.454-2.9819c-.3378-1.7751-1.393-3.7806-3.3783-3.7786-2.1328.0041-3.4065,2.1653-3.8149,4.0939Z" fill="#fff"/><path d="M300.8822,29.98c-.0021-1.6213.0343-2.1247-1.8439-3.5116v-.3821l4.46-1.7083.4125.1577-.2952,2.8162c2.1308-1.6255,4.191-2.978,6.5886-2.98,4.4983-.006,4.7267,3.8169,4.7287,6.0913l.0082,6.8737c.004,3.166.1536,3.4773,2.9273,3.8958v.5782l-8.7336.01v-.5782c2.7737-.4266,2.8849-.8936,2.9213-3.9018l-.0041-4.4417c-.004-2.7029.1032-6.52-4.47-6.5158a5.1007,5.1007,0,0,0-3.8149,1.6638l.01,9.3018c.0041,3.1679.1537,3.4772,2.9254,3.8957v.5782l-8.73.01-.006-.7035c2.6848-.2163,2.889-.7662,2.9233-3.7765Z" fill="#fff"/></svg>